# xmcd
#
# Track frame offsets: 
#        150
#        12875
#        23492
#        33695
#        42677
#        52790
#        63647
#        79455
#        91147
#        107025
#        119932
#        135732
#        145705
#        158200
#        168717
#        178752
#        188367
#        201532
#
# Disc length: 2824 seconds
#
# Revision: 1
# Processed by: cddbd v1.5.1PL2 Copyright (c) Steve Scherf et al.
# Submitted via: ExactAudioCopy v0.95a3
#
DISCID=030b0612
DTITLE=Various Artist - Cross Country
DYEAR=1998
DGENRE=Country
TTITLE0=Glen Campbell - By The Time I Get To Phoenix
TTITLE1=Roger Miller - King Of The Road
TTITLE2=Dave Dudley - Six Days On The Road
TTITLE3=Patsy Cline - Ain't No Wheels On This Ship
TTITLE4=Cowboy Copas - 1000 Miles Of Ocean
TTITLE5=Gene Autry - The Last Mile Home
TTITLE6=Bill Anderson - We May Never Pass This Way Again
TTITLE7=Bobby Bare - That's How I Got To Memphis
TTITLE8=Cash McCall - Across The Wide Missouri
TTITLE9=Billie Jo Spears - He's On The Run Again
TTITLE10=Bobby Bare - Leaving On A Jet Plane
TTITLE11=Hank Locklin - Happy Journey
TTITLE12=Red Simpson - Roll Truck Roll
TTITLE13=Johnny Cash - I Heard That Lonesome Whistle
TTITLE14=Jimmy Dean - Freight Train Blues
TTITLE15=Hank Locklin - Flying South
TTITLE16=Cowboy Copas - Wreck on the Highway
TTITLE17=Johnny Cash - Train Of Love
EXTD=YEAR: 1998 ID3G: 2
EXTT0=
EXTT1=
EXTT2=
EXTT3=
EXTT4=
EXTT5=
EXTT6=
EXTT7=
EXTT8=
EXTT9=
EXTT10=
EXTT11=
EXTT12=
EXTT13=
EXTT14=
EXTT15=
EXTT16=
EXTT17=
PLAYORDER=
